<svg xmlns="http://www.w3.org/2000/svg" viewBox="0 0 48 48"><path d="M 42.470703 3.9863281 A 1.50015 1.50015 0 0 0 41.439453 4.4394531 L 4.4394531 41.439453 A 1.50015 1.50015 0 1 0 6.5605469 43.560547 L 11.121094 39 L 25.5 39 C 29.09 39 32 36.09 32 32.5 L 32 18.121094 L 43.560547 6.5605469 A 1.50015 1.50015 0 0 0 42.470703 3.9863281 z M 10.5 9 C 6.91 9 4 11.91 4 15.5 L 4 32.5 C 4 33.96 4.4868281 35.301719 5.2988281 36.386719 L 30.423828 11.263672 C 29.231828 9.8806719 27.47 9 25.5 9 L 10.5 9 z M 42.480469 13 C 42.219469 13.00325 41.960516 13.075844 41.728516 13.214844 L 34 17.851562 L 34 30.148438 L 41.728516 34.785156 C 41.965516 34.928156 42.232 35 42.5 35 C 42.755 35 43.009281 34.934687 43.238281 34.804688 C 43.708281 34.538688 44 34.041 44 33.5 L 44 14.5 C 44 13.959 43.708281 13.461313 43.238281 13.195312 C 43.003281 13.062313 42.741469 12.99675 42.480469 13 z" class="permanent"/></svg>